<svg width="1580" height="1160" viewBox="0 0 1580 1160" fill="none" xmlns="http://www.w3.org/2000/svg">
<path d="M355.2 342.8C355.2 304.277 325.052 272.933 288 272.933C250.948 272.933 220.8 304.277 220.8 342.8C220.8 381.323 250.948 412.667 288 412.667C325.052 412.667 355.2 381.323 355.2 342.8ZM237.6 342.8C237.6 313.901 260.204 290.4 288 290.4C315.796 290.4 338.4 313.901 338.4 342.8C338.4 371.699 315.796 395.2 288 395.2C260.204 395.2 237.6 371.699 237.6 342.8Z" fill="url(#paint0_linear)"/>
<path d="M455.891 578.871C450.716 576.644 444.82 577.866 440.872 581.98L416.461 607.359L414 609.918L382.861 642.292C379.577 645.707 379.577 651.226 382.861 654.641C384.499 656.344 386.65 657.2 388.8 657.2C390.95 657.2 393.101 656.344 394.739 654.641L414 634.616V665.933C414 694.911 394.218 709.6 355.2 709.6C332.041 709.6 313.2 690.011 313.2 665.933V628.738C322.331 631.227 331.865 631.655 341.315 630.004C373.176 624.38 397.2 593.875 397.2 559.037V487.319C397.2 481.503 393.865 476.306 388.691 474.071C383.516 471.844 377.62 473.066 373.672 477.18L349.261 502.559L346.8 505.118L324.061 528.759C320.777 532.174 320.777 537.693 324.061 541.108C325.699 542.811 327.85 543.667 330 543.667C332.15 543.667 334.301 542.811 335.939 541.108L346.8 529.816V560.103C346.8 568.906 341.046 576.714 333.419 578.259C328.295 579.264 323.28 578.006 319.332 574.618C315.434 571.273 313.2 566.365 313.2 561.133V444.15C356.603 432.474 388.8 391.523 388.8 342.8C388.8 285.012 343.583 238 288 238C232.417 238 187.2 285.012 187.2 342.8C187.2 391.523 219.397 432.474 262.8 444.15V665.933C262.8 690.011 243.959 709.6 220.8 709.6C181.782 709.6 162 694.911 162 665.933V634.616L181.261 654.641C182.899 656.344 185.05 657.2 187.2 657.2C189.35 657.2 191.501 656.344 193.139 654.641C196.423 651.226 196.423 645.707 193.139 642.292L159.866 607.699L134.414 574.618C130.97 570.129 125.368 568.443 120.176 570.364C114.968 572.26 111.6 577.194 111.6 582.932V665.933C111.6 736.839 170.425 762 220.8 762C246.588 762 270.562 751.075 288 731.687C305.438 751.075 329.412 762 355.2 762C405.575 762 464.4 736.839 464.4 665.933V592.119C464.4 586.303 461.065 581.106 455.891 578.871ZM204 342.8C204 294.644 241.682 255.467 288 255.467C334.318 255.467 372 294.644 372 342.8C372 390.956 334.318 430.133 288 430.133C241.682 430.133 204 390.956 204 342.8ZM447.6 665.933C447.6 684.369 440.939 744.533 355.2 744.533C331.252 744.533 309.21 732.997 294.72 712.875L288 703.539L281.28 712.875C266.79 732.997 244.748 744.533 220.8 744.533C199.12 744.533 128.4 738.865 128.4 665.933V594.765L145.2 616.599V665.933C145.2 705.356 172.046 727.067 220.8 727.067C253.224 727.067 279.6 699.644 279.6 665.933V447.6H296.4V561.133C296.4 571.596 300.86 581.421 308.647 588.093C316.426 594.757 326.64 597.429 336.628 595.394C352.252 592.241 363.6 577.395 363.6 560.103V512.349L380.4 494.882V559.037C380.4 585.464 362.382 608.564 338.501 612.782C328.253 614.59 317.837 613.079 308.42 608.407L296.4 602.433V665.933C296.4 699.644 322.776 727.067 355.2 727.067C403.954 727.067 430.8 705.356 430.8 665.933V617.149L447.6 599.682V665.933Z" fill="url(#paint1_linear)"/>
<path d="M656.602 315.812V412.492C656.536 425.904 652.305 436.874 643.906 445.402C635.573 453.931 624.245 458.716 609.922 459.758L604.941 459.953C589.382 459.953 576.979 455.754 567.734 447.355C558.49 438.957 553.802 427.401 553.672 412.688V315.812H572.227V412.102C572.227 422.388 575.059 430.396 580.723 436.125C586.387 441.789 594.46 444.621 604.941 444.621C615.553 444.621 623.659 441.789 629.258 436.125C634.922 430.461 637.754 422.486 637.754 412.199V315.812H656.602ZM744.883 429.973C744.883 425.09 743.027 421.314 739.316 418.645C735.671 415.91 729.258 413.566 720.078 411.613C710.964 409.66 703.704 407.316 698.301 404.582C692.962 401.848 688.991 398.592 686.387 394.816C683.848 391.04 682.578 386.548 682.578 381.34C682.578 372.681 686.224 365.357 693.516 359.367C700.872 353.378 710.247 350.383 721.641 350.383C733.62 350.383 743.32 353.475 750.742 359.66C758.229 365.845 761.973 373.755 761.973 383.391H743.809C743.809 378.443 741.693 374.178 737.461 370.598C733.294 367.017 728.021 365.227 721.641 365.227C715.065 365.227 709.922 366.659 706.211 369.523C702.5 372.388 700.645 376.132 700.645 380.754C700.645 385.116 702.37 388.404 705.82 390.617C709.271 392.831 715.488 394.947 724.473 396.965C733.522 398.983 740.846 401.392 746.445 404.191C752.044 406.991 756.178 410.376 758.848 414.348C761.582 418.254 762.949 423.039 762.949 428.703C762.949 438.143 759.173 445.728 751.621 451.457C744.069 457.121 734.271 459.953 722.227 459.953C713.763 459.953 706.276 458.456 699.766 455.461C693.255 452.466 688.145 448.299 684.434 442.961C680.788 437.557 678.965 431.73 678.965 425.48H697.031C697.357 431.535 699.766 436.353 704.258 439.934C708.815 443.449 714.805 445.207 722.227 445.207C729.062 445.207 734.531 443.84 738.633 441.105C742.799 438.306 744.883 434.595 744.883 429.973ZM830.332 459.953C816.009 459.953 804.355 455.266 795.371 445.891C786.387 436.451 781.895 423.853 781.895 408.098V404.777C781.895 394.296 783.88 384.953 787.852 376.75C791.888 368.482 797.487 362.036 804.648 357.414C811.875 352.727 819.688 350.383 828.086 350.383C841.823 350.383 852.5 354.908 860.117 363.957C867.734 373.007 871.543 385.962 871.543 402.824V410.344H799.961C800.221 420.76 803.249 429.191 809.043 435.637C814.902 442.017 822.324 445.207 831.309 445.207C837.689 445.207 843.092 443.905 847.52 441.301C851.947 438.697 855.82 435.246 859.141 430.949L870.176 439.543C861.322 453.15 848.04 459.953 830.332 459.953ZM828.086 365.227C820.794 365.227 814.674 367.896 809.727 373.234C804.779 378.508 801.719 385.93 800.547 395.5H853.477V394.133C852.956 384.953 850.482 377.857 846.055 372.844C841.628 367.766 835.638 365.227 828.086 365.227ZM944.98 458V315.812H991.465C1006.89 315.812 1018.48 319.003 1026.23 325.383C1034.04 331.763 1037.95 341.203 1037.95 353.703C1037.95 360.344 1036.06 366.236 1032.29 371.379C1028.51 376.457 1023.37 380.396 1016.86 383.195C1024.54 385.344 1030.59 389.445 1035.02 395.5C1039.51 401.49 1041.76 408.651 1041.76 416.984C1041.76 429.745 1037.62 439.771 1029.36 447.062C1021.09 454.354 1009.4 458 994.297 458H944.98ZM963.73 391.496V442.668H994.688C1003.41 442.668 1010.28 440.422 1015.29 435.93C1020.37 431.372 1022.91 425.122 1022.91 417.18C1022.91 400.057 1013.6 391.496 994.98 391.496H963.73ZM963.73 376.457H992.051C1000.25 376.457 1006.8 374.406 1011.68 370.305C1016.63 366.203 1019.1 360.637 1019.1 353.605C1019.1 345.793 1016.82 340.129 1012.27 336.613C1007.71 333.033 1000.77 331.242 991.465 331.242H963.73V376.457ZM1117.83 368.547C1115.1 368.091 1112.14 367.863 1108.95 367.863C1097.1 367.863 1089.06 372.909 1084.82 383V458H1066.76V352.336H1084.34L1084.63 364.543C1090.55 355.103 1098.95 350.383 1109.82 350.383C1113.34 350.383 1116.01 350.839 1117.83 351.75V368.547ZM1195.86 458C1194.82 455.917 1193.97 452.206 1193.32 446.867C1184.92 455.591 1174.9 459.953 1163.24 459.953C1152.83 459.953 1144.26 457.023 1137.56 451.164C1130.92 445.24 1127.6 437.753 1127.6 428.703C1127.6 417.701 1131.76 409.172 1140.1 403.117C1148.5 396.997 1160.28 393.938 1175.45 393.938H1193.03V385.637C1193.03 379.322 1191.14 374.309 1187.36 370.598C1183.59 366.822 1178.02 364.934 1170.66 364.934C1164.22 364.934 1158.82 366.561 1154.45 369.816C1150.09 373.072 1147.91 377.01 1147.91 381.633H1129.75C1129.75 376.359 1131.6 371.281 1135.31 366.398C1139.09 361.451 1144.17 357.544 1150.55 354.68C1156.99 351.815 1164.06 350.383 1171.74 350.383C1183.91 350.383 1193.45 353.443 1200.35 359.562C1207.25 365.617 1210.83 373.983 1211.09 384.66V433.293C1211.09 442.993 1212.33 450.708 1214.8 456.438V458H1195.86ZM1165.88 444.23C1171.54 444.23 1176.91 442.766 1181.99 439.836C1187.07 436.906 1190.75 433.098 1193.03 428.41V406.73H1178.87C1156.73 406.73 1145.66 413.208 1145.66 426.164C1145.66 431.828 1147.55 436.255 1151.33 439.445C1155.1 442.635 1159.95 444.23 1165.88 444.23ZM1256.41 443.254H1318.22V458H1234.34V444.719L1292.64 367.277H1235.21V352.336H1315.29V365.129L1256.41 443.254ZM1358.26 458H1340.2V352.336H1358.26V458ZM1338.73 324.309C1338.73 321.379 1339.61 318.905 1341.37 316.887C1343.19 314.868 1345.86 313.859 1349.38 313.859C1352.89 313.859 1355.56 314.868 1357.38 316.887C1359.21 318.905 1360.12 321.379 1360.12 324.309C1360.12 327.238 1359.21 329.68 1357.38 331.633C1355.56 333.586 1352.89 334.562 1349.38 334.562C1345.86 334.562 1343.19 333.586 1341.37 331.633C1339.61 329.68 1338.73 327.238 1338.73 324.309ZM1406.89 458H1388.83V308H1406.89V458Z" fill="#004FEA"/>
<path d="M651.02 605.891H591.449L578.07 643H558.734L613.031 500.812H629.438L683.832 643H664.594L651.02 605.891ZM597.113 590.461H645.453L621.234 523.957L597.113 590.461ZM721.723 587.336V643H702.973V500.812H755.414C770.974 500.812 783.148 504.784 791.938 512.727C800.792 520.669 805.219 531.184 805.219 544.27C805.219 558.072 800.889 568.716 792.23 576.203C783.637 583.625 771.299 587.336 755.219 587.336H721.723ZM721.723 572.004H755.414C765.44 572.004 773.122 569.66 778.461 564.973C783.799 560.22 786.469 553.384 786.469 544.465C786.469 536.001 783.799 529.23 778.461 524.152C773.122 519.074 765.798 516.438 756.488 516.242H721.723V572.004ZM849.262 643H830.512V500.812H849.262V643ZM1037.84 597.883C1036.08 612.922 1030.51 624.543 1021.14 632.746C1011.83 640.884 999.424 644.953 983.93 644.953C967.133 644.953 953.656 638.931 943.5 626.887C933.409 614.842 928.363 598.729 928.363 578.547V564.875C928.363 551.659 930.707 540.038 935.395 530.012C940.147 519.986 946.853 512.303 955.512 506.965C964.171 501.561 974.197 498.859 985.59 498.859C1000.69 498.859 1012.8 503.091 1021.92 511.555C1031.03 519.953 1036.34 531.607 1037.84 546.516H1018.99C1017.36 535.188 1013.81 526.984 1008.34 521.906C1002.94 516.828 995.355 514.289 985.59 514.289C973.611 514.289 964.203 518.716 957.367 527.57C950.596 536.424 947.211 549.022 947.211 565.363V579.133C947.211 594.562 950.434 606.835 956.879 615.949C963.324 625.064 972.341 629.621 983.93 629.621C994.346 629.621 1002.32 627.277 1007.86 622.59C1013.45 617.837 1017.17 609.602 1018.99 597.883H1037.84ZM1172.8 643H1153.95L1082.37 533.43V643H1063.52V500.812H1082.37L1154.14 610.871V500.812H1172.8V643ZM1224.85 587.336V643H1206.1V500.812H1258.54C1274.1 500.812 1286.27 504.784 1295.06 512.727C1303.92 520.669 1308.34 531.184 1308.34 544.27C1308.34 558.072 1304.01 568.716 1295.36 576.203C1286.76 583.625 1274.42 587.336 1258.34 587.336H1224.85ZM1224.85 572.004H1258.54C1268.57 572.004 1276.25 569.66 1281.59 564.973C1286.92 560.22 1289.59 553.384 1289.59 544.465C1289.59 536.001 1286.92 529.23 1281.59 524.152C1276.25 519.074 1268.92 516.438 1259.61 516.242H1224.85V572.004ZM1372.31 500.812H1391.16V601.496C1391.16 615.103 1387.05 625.747 1378.85 633.43C1370.71 641.112 1359.84 644.953 1346.23 644.953C1332.11 644.953 1321.1 641.34 1313.23 634.113C1305.35 626.887 1301.41 616.763 1301.41 603.742H1320.16C1320.16 611.88 1322.37 618.228 1326.8 622.785C1331.29 627.342 1337.77 629.621 1346.23 629.621C1353.98 629.621 1360.23 627.18 1364.98 622.297C1369.8 617.414 1372.24 610.578 1372.31 601.789V500.812Z" fill="#DBAB00"/>
<path d="M608.477 706.195H600.461V720H595.938V685.875H607.234C611.078 685.875 614.031 686.75 616.094 688.5C618.172 690.25 619.211 692.797 619.211 696.141C619.211 698.266 618.633 700.117 617.477 701.695C616.336 703.273 614.742 704.453 612.695 705.234L620.711 719.719V720H615.883L608.477 706.195ZM600.461 702.516H607.375C609.609 702.516 611.383 701.938 612.695 700.781C614.023 699.625 614.688 698.078 614.688 696.141C614.688 694.031 614.055 692.414 612.789 691.289C611.539 690.164 609.727 689.594 607.352 689.578H600.461V702.516ZM635.383 720.469C631.945 720.469 629.148 719.344 626.992 717.094C624.836 714.828 623.758 711.805 623.758 708.023V707.227C623.758 704.711 624.234 702.469 625.188 700.5C626.156 698.516 627.5 696.969 629.219 695.859C630.953 694.734 632.828 694.172 634.844 694.172C638.141 694.172 640.703 695.258 642.531 697.43C644.359 699.602 645.273 702.711 645.273 706.758V708.562H628.094C628.156 711.062 628.883 713.086 630.273 714.633C631.68 716.164 633.461 716.93 635.617 716.93C637.148 716.93 638.445 716.617 639.508 715.992C640.57 715.367 641.5 714.539 642.297 713.508L644.945 715.57C642.82 718.836 639.633 720.469 635.383 720.469ZM634.844 697.734C633.094 697.734 631.625 698.375 630.438 699.656C629.25 700.922 628.516 702.703 628.234 705H640.938V704.672C640.812 702.469 640.219 700.766 639.156 699.562C638.094 698.344 636.656 697.734 634.844 697.734ZM665.969 720C665.719 719.5 665.516 718.609 665.359 717.328C663.344 719.422 660.938 720.469 658.141 720.469C655.641 720.469 653.586 719.766 651.977 718.359C650.383 716.938 649.586 715.141 649.586 712.969C649.586 710.328 650.586 708.281 652.586 706.828C654.602 705.359 657.43 704.625 661.07 704.625H665.289V702.633C665.289 701.117 664.836 699.914 663.93 699.023C663.023 698.117 661.688 697.664 659.922 697.664C658.375 697.664 657.078 698.055 656.031 698.836C654.984 699.617 654.461 700.562 654.461 701.672H650.102C650.102 700.406 650.547 699.188 651.438 698.016C652.344 696.828 653.562 695.891 655.094 695.203C656.641 694.516 658.336 694.172 660.18 694.172C663.102 694.172 665.391 694.906 667.047 696.375C668.703 697.828 669.562 699.836 669.625 702.398V714.07C669.625 716.398 669.922 718.25 670.516 719.625V720H665.969ZM658.773 716.695C660.133 716.695 661.422 716.344 662.641 715.641C663.859 714.938 664.742 714.023 665.289 712.898V707.695H661.891C656.578 707.695 653.922 709.25 653.922 712.359C653.922 713.719 654.375 714.781 655.281 715.547C656.188 716.312 657.352 716.695 658.773 716.695ZM686.594 716.93C688.141 716.93 689.492 716.461 690.648 715.523C691.805 714.586 692.445 713.414 692.57 712.008H696.672C696.594 713.461 696.094 714.844 695.172 716.156C694.25 717.469 693.016 718.516 691.469 719.297C689.938 720.078 688.312 720.469 686.594 720.469C683.141 720.469 680.391 719.32 678.344 717.023C676.312 714.711 675.297 711.555 675.297 707.555V706.828C675.297 704.359 675.75 702.164 676.656 700.242C677.562 698.32 678.859 696.828 680.547 695.766C682.25 694.703 684.258 694.172 686.57 694.172C689.414 694.172 691.773 695.023 693.648 696.727C695.539 698.43 696.547 700.641 696.672 703.359H692.57C692.445 701.719 691.82 700.375 690.695 699.328C689.586 698.266 688.211 697.734 686.57 697.734C684.367 697.734 682.656 698.531 681.438 700.125C680.234 701.703 679.633 703.992 679.633 706.992V707.812C679.633 710.734 680.234 712.984 681.438 714.562C682.641 716.141 684.359 716.93 686.594 716.93ZM707.43 688.5V694.641H712.164V697.992H707.43V713.719C707.43 714.734 707.641 715.5 708.062 716.016C708.484 716.516 709.203 716.766 710.219 716.766C710.719 716.766 711.406 716.672 712.281 716.484V720C711.141 720.312 710.031 720.469 708.953 720.469C707.016 720.469 705.555 719.883 704.57 718.711C703.586 717.539 703.094 715.875 703.094 713.719V697.992H698.477V694.641H703.094V688.5H707.43ZM756.062 720H751.539V704.227H734.336V720H729.836V685.875H734.336V700.547H751.539V685.875H756.062V720ZM762.227 707.086C762.227 704.602 762.711 702.367 763.68 700.383C764.664 698.398 766.023 696.867 767.758 695.789C769.508 694.711 771.5 694.172 773.734 694.172C777.188 694.172 779.977 695.367 782.102 697.758C784.242 700.148 785.312 703.328 785.312 707.297V707.602C785.312 710.07 784.836 712.289 783.883 714.258C782.945 716.211 781.594 717.734 779.828 718.828C778.078 719.922 776.062 720.469 773.781 720.469C770.344 720.469 767.555 719.273 765.414 716.883C763.289 714.492 762.227 711.328 762.227 707.391V707.086ZM766.586 707.602C766.586 710.414 767.234 712.672 768.531 714.375C769.844 716.078 771.594 716.93 773.781 716.93C775.984 716.93 777.734 716.07 779.031 714.352C780.328 712.617 780.977 710.195 780.977 707.086C780.977 704.305 780.312 702.055 778.984 700.336C777.672 698.602 775.922 697.734 773.734 697.734C771.594 697.734 769.867 698.586 768.555 700.289C767.242 701.992 766.586 704.43 766.586 707.602ZM789.602 707.086C789.602 704.602 790.086 702.367 791.055 700.383C792.039 698.398 793.398 696.867 795.133 695.789C796.883 694.711 798.875 694.172 801.109 694.172C804.562 694.172 807.352 695.367 809.477 697.758C811.617 700.148 812.688 703.328 812.688 707.297V707.602C812.688 710.07 812.211 712.289 811.258 714.258C810.32 716.211 808.969 717.734 807.203 718.828C805.453 719.922 803.438 720.469 801.156 720.469C797.719 720.469 794.93 719.273 792.789 716.883C790.664 714.492 789.602 711.328 789.602 707.391V707.086ZM793.961 707.602C793.961 710.414 794.609 712.672 795.906 714.375C797.219 716.078 798.969 716.93 801.156 716.93C803.359 716.93 805.109 716.07 806.406 714.352C807.703 712.617 808.352 710.195 808.352 707.086C808.352 704.305 807.688 702.055 806.359 700.336C805.047 698.602 803.297 697.734 801.109 697.734C798.969 697.734 797.242 698.586 795.93 700.289C794.617 701.992 793.961 704.43 793.961 707.602ZM825.203 708.258L822.484 711.094V720H818.148V684H822.484V705.773L824.805 702.984L832.703 694.641H837.977L828.109 705.234L839.125 720H834.039L825.203 708.258ZM860.242 688.5V694.641H864.977V697.992H860.242V713.719C860.242 714.734 860.453 715.5 860.875 716.016C861.297 716.516 862.016 716.766 863.031 716.766C863.531 716.766 864.219 716.672 865.094 716.484V720C863.953 720.312 862.844 720.469 861.766 720.469C859.828 720.469 858.367 719.883 857.383 718.711C856.398 717.539 855.906 715.875 855.906 713.719V697.992H851.289V694.641H855.906V688.5H860.242ZM868.445 707.086C868.445 704.602 868.93 702.367 869.898 700.383C870.883 698.398 872.242 696.867 873.977 695.789C875.727 694.711 877.719 694.172 879.953 694.172C883.406 694.172 886.195 695.367 888.32 697.758C890.461 700.148 891.531 703.328 891.531 707.297V707.602C891.531 710.07 891.055 712.289 890.102 714.258C889.164 716.211 887.812 717.734 886.047 718.828C884.297 719.922 882.281 720.469 880 720.469C876.562 720.469 873.773 719.273 871.633 716.883C869.508 714.492 868.445 711.328 868.445 707.391V707.086ZM872.805 707.602C872.805 710.414 873.453 712.672 874.75 714.375C876.062 716.078 877.812 716.93 880 716.93C882.203 716.93 883.953 716.07 885.25 714.352C886.547 712.617 887.195 710.195 887.195 707.086C887.195 704.305 886.531 702.055 885.203 700.336C883.891 698.602 882.141 697.734 879.953 697.734C877.812 697.734 876.086 698.586 874.773 700.289C873.461 701.992 872.805 704.43 872.805 707.602ZM911.008 720V697.992H907V694.641H911.008V692.039C911.008 689.32 911.734 687.219 913.188 685.734C914.641 684.25 916.695 683.508 919.352 683.508C920.352 683.508 921.344 683.641 922.328 683.906L922.094 687.422C921.359 687.281 920.578 687.211 919.75 687.211C918.344 687.211 917.258 687.625 916.492 688.453C915.727 689.266 915.344 690.438 915.344 691.969V694.641H920.758V697.992H915.344V720H911.008ZM935.523 720.469C932.086 720.469 929.289 719.344 927.133 717.094C924.977 714.828 923.898 711.805 923.898 708.023V707.227C923.898 704.711 924.375 702.469 925.328 700.5C926.297 698.516 927.641 696.969 929.359 695.859C931.094 694.734 932.969 694.172 934.984 694.172C938.281 694.172 940.844 695.258 942.672 697.43C944.5 699.602 945.414 702.711 945.414 706.758V708.562H928.234C928.297 711.062 929.023 713.086 930.414 714.633C931.82 716.164 933.602 716.93 935.758 716.93C937.289 716.93 938.586 716.617 939.648 715.992C940.711 715.367 941.641 714.539 942.438 713.508L945.086 715.57C942.961 718.836 939.773 720.469 935.523 720.469ZM934.984 697.734C933.234 697.734 931.766 698.375 930.578 699.656C929.391 700.922 928.656 702.703 928.375 705H941.078V704.672C940.953 702.469 940.359 700.766 939.297 699.562C938.234 698.344 936.797 697.734 934.984 697.734ZM956.336 688.5V694.641H961.07V697.992H956.336V713.719C956.336 714.734 956.547 715.5 956.969 716.016C957.391 716.516 958.109 716.766 959.125 716.766C959.625 716.766 960.312 716.672 961.188 716.484V720C960.047 720.312 958.938 720.469 957.859 720.469C955.922 720.469 954.461 719.883 953.477 718.711C952.492 717.539 952 715.875 952 713.719V697.992H947.383V694.641H952V688.5H956.336ZM976.328 716.93C977.875 716.93 979.227 716.461 980.383 715.523C981.539 714.586 982.18 713.414 982.305 712.008H986.406C986.328 713.461 985.828 714.844 984.906 716.156C983.984 717.469 982.75 718.516 981.203 719.297C979.672 720.078 978.047 720.469 976.328 720.469C972.875 720.469 970.125 719.32 968.078 717.023C966.047 714.711 965.031 711.555 965.031 707.555V706.828C965.031 704.359 965.484 702.164 966.391 700.242C967.297 698.32 968.594 696.828 970.281 695.766C971.984 694.703 973.992 694.172 976.305 694.172C979.148 694.172 981.508 695.023 983.383 696.727C985.273 698.43 986.281 700.641 986.406 703.359H982.305C982.18 701.719 981.555 700.375 980.43 699.328C979.32 698.266 977.945 697.734 976.305 697.734C974.102 697.734 972.391 698.531 971.172 700.125C969.969 701.703 969.367 703.992 969.367 706.992V707.812C969.367 710.734 969.969 712.984 971.172 714.562C972.375 716.141 974.094 716.93 976.328 716.93ZM995.617 697.711C997.539 695.352 1000.04 694.172 1003.12 694.172C1008.48 694.172 1011.18 697.195 1011.23 703.242V720H1006.89V703.219C1006.88 701.391 1006.45 700.039 1005.62 699.164C1004.81 698.289 1003.54 697.852 1001.8 697.852C1000.4 697.852 999.164 698.227 998.102 698.977C997.039 699.727 996.211 700.711 995.617 701.93V720H991.281V684H995.617V697.711ZM1030.3 720V685.875H1041.46C1045.16 685.875 1047.95 686.641 1049.8 688.172C1051.68 689.703 1052.62 691.969 1052.62 694.969C1052.62 696.562 1052.16 697.977 1051.26 699.211C1050.35 700.43 1049.12 701.375 1047.55 702.047C1049.4 702.562 1050.85 703.547 1051.91 705C1052.99 706.438 1053.53 708.156 1053.53 710.156C1053.53 713.219 1052.54 715.625 1050.55 717.375C1048.57 719.125 1045.77 720 1042.14 720H1030.3ZM1034.8 704.039V716.32H1042.23C1044.33 716.32 1045.98 715.781 1047.18 714.703C1048.4 713.609 1049.01 712.109 1049.01 710.203C1049.01 706.094 1046.77 704.039 1042.3 704.039H1034.8ZM1034.8 700.43H1041.6C1043.57 700.43 1045.14 699.938 1046.31 698.953C1047.5 697.969 1048.09 696.633 1048.09 694.945C1048.09 693.07 1047.55 691.711 1046.45 690.867C1045.36 690.008 1043.7 689.578 1041.46 689.578H1034.8V700.43ZM1071.79 698.531C1071.13 698.422 1070.42 698.367 1069.66 698.367C1066.81 698.367 1064.88 699.578 1063.87 702V720H1059.53V694.641H1063.75L1063.82 697.57C1065.24 695.305 1067.26 694.172 1069.87 694.172C1070.71 694.172 1071.35 694.281 1071.79 694.5V698.531ZM1090.52 720C1090.27 719.5 1090.06 718.609 1089.91 717.328C1087.89 719.422 1085.48 720.469 1082.69 720.469C1080.19 720.469 1078.13 719.766 1076.52 718.359C1074.93 716.938 1074.13 715.141 1074.13 712.969C1074.13 710.328 1075.13 708.281 1077.13 706.828C1079.15 705.359 1081.98 704.625 1085.62 704.625H1089.84V702.633C1089.84 701.117 1089.38 699.914 1088.48 699.023C1087.57 698.117 1086.23 697.664 1084.47 697.664C1082.92 697.664 1081.62 698.055 1080.58 698.836C1079.53 699.617 1079.01 700.562 1079.01 701.672H1074.65C1074.65 700.406 1075.09 699.188 1075.98 698.016C1076.89 696.828 1078.11 695.891 1079.64 695.203C1081.19 694.516 1082.88 694.172 1084.73 694.172C1087.65 694.172 1089.94 694.906 1091.59 696.375C1093.25 697.828 1094.11 699.836 1094.17 702.398V714.07C1094.17 716.398 1094.47 718.25 1095.06 719.625V720H1090.52ZM1083.32 716.695C1084.68 716.695 1085.97 716.344 1087.19 715.641C1088.41 714.938 1089.29 714.023 1089.84 712.898V707.695H1086.44C1081.12 707.695 1078.47 709.25 1078.47 712.359C1078.47 713.719 1078.92 714.781 1079.83 715.547C1080.73 716.312 1081.9 716.695 1083.32 716.695ZM1105.05 716.461H1119.88V720H1099.75V716.812L1113.74 698.227H1099.96V694.641H1119.18V697.711L1105.05 716.461ZM1129.49 720H1125.16V694.641H1129.49V720ZM1124.8 687.914C1124.8 687.211 1125.02 686.617 1125.44 686.133C1125.88 685.648 1126.52 685.406 1127.36 685.406C1128.2 685.406 1128.84 685.648 1129.28 686.133C1129.72 686.617 1129.94 687.211 1129.94 687.914C1129.94 688.617 1129.72 689.203 1129.28 689.672C1128.84 690.141 1128.2 690.375 1127.36 690.375C1126.52 690.375 1125.88 690.141 1125.44 689.672C1125.02 689.203 1124.8 688.617 1124.8 687.914ZM1141.16 720H1136.83V684H1141.16V720ZM1152.84 720H1148.5V694.641H1152.84V720ZM1148.15 687.914C1148.15 687.211 1148.36 686.617 1148.78 686.133C1149.22 685.648 1149.86 685.406 1150.7 685.406C1151.55 685.406 1152.19 685.648 1152.62 686.133C1153.06 686.617 1153.28 687.211 1153.28 687.914C1153.28 688.617 1153.06 689.203 1152.62 689.672C1152.19 690.141 1151.55 690.375 1150.7 690.375C1149.86 690.375 1149.22 690.141 1148.78 689.672C1148.36 689.203 1148.15 688.617 1148.15 687.914ZM1175.45 720C1175.2 719.5 1175 718.609 1174.84 717.328C1172.83 719.422 1170.42 720.469 1167.62 720.469C1165.12 720.469 1163.07 719.766 1161.46 718.359C1159.87 716.938 1159.07 715.141 1159.07 712.969C1159.07 710.328 1160.07 708.281 1162.07 706.828C1164.09 705.359 1166.91 704.625 1170.55 704.625H1174.77V702.633C1174.77 701.117 1174.32 699.914 1173.41 699.023C1172.51 698.117 1171.17 697.664 1169.41 697.664C1167.86 697.664 1166.56 698.055 1165.52 698.836C1164.47 699.617 1163.95 700.562 1163.95 701.672H1159.59C1159.59 700.406 1160.03 699.188 1160.92 698.016C1161.83 696.828 1163.05 695.891 1164.58 695.203C1166.12 694.516 1167.82 694.172 1169.66 694.172C1172.59 694.172 1174.88 694.906 1176.53 696.375C1178.19 697.828 1179.05 699.836 1179.11 702.398V714.07C1179.11 716.398 1179.41 718.25 1180 719.625V720H1175.45ZM1168.26 716.695C1169.62 716.695 1170.91 716.344 1172.12 715.641C1173.34 714.938 1174.23 714.023 1174.77 712.898V707.695H1171.38C1166.06 707.695 1163.41 709.25 1163.41 712.359C1163.41 713.719 1163.86 714.781 1164.77 715.547C1165.67 716.312 1166.84 716.695 1168.26 716.695ZM1190.01 694.641L1190.15 697.828C1192.09 695.391 1194.62 694.172 1197.74 694.172C1203.1 694.172 1205.8 697.195 1205.85 703.242V720H1201.52V703.219C1201.5 701.391 1201.08 700.039 1200.25 699.164C1199.44 698.289 1198.16 697.852 1196.43 697.852C1195.02 697.852 1193.79 698.227 1192.73 698.977C1191.66 699.727 1190.84 700.711 1190.24 701.93V720H1185.91V694.641H1190.01ZM1250.08 709.172C1249.66 712.781 1248.32 715.57 1246.07 717.539C1243.84 719.492 1240.86 720.469 1237.14 720.469C1233.11 720.469 1229.88 719.023 1227.44 716.133C1225.02 713.242 1223.8 709.375 1223.8 704.531V701.25C1223.8 698.078 1224.37 695.289 1225.49 692.883C1226.63 690.477 1228.24 688.633 1230.32 687.352C1232.4 686.055 1234.8 685.406 1237.54 685.406C1241.16 685.406 1244.07 686.422 1246.26 688.453C1248.45 690.469 1249.72 693.266 1250.08 696.844H1245.55C1245.16 694.125 1244.31 692.156 1243 690.938C1241.7 689.719 1239.88 689.109 1237.54 689.109C1234.66 689.109 1232.41 690.172 1230.77 692.297C1229.14 694.422 1228.33 697.445 1228.33 701.367V704.672C1228.33 708.375 1229.1 711.32 1230.65 713.508C1232.2 715.695 1234.36 716.789 1237.14 716.789C1239.64 716.789 1241.55 716.227 1242.88 715.102C1244.23 713.961 1245.12 711.984 1245.55 709.172H1250.08ZM1282.47 720H1277.95L1260.77 693.703V720H1256.24V685.875H1260.77L1277.99 712.289V685.875H1282.47V720ZM1294.96 706.641V720H1290.46V685.875H1303.05C1306.78 685.875 1309.7 686.828 1311.81 688.734C1313.94 690.641 1315 693.164 1315 696.305C1315 699.617 1313.96 702.172 1311.88 703.969C1309.82 705.75 1306.86 706.641 1303 706.641H1294.96ZM1294.96 702.961H1303.05C1305.45 702.961 1307.3 702.398 1308.58 701.273C1309.86 700.133 1310.5 698.492 1310.5 696.352C1310.5 694.32 1309.86 692.695 1308.58 691.477C1307.3 690.258 1305.54 689.625 1303.3 689.578H1294.96V702.961ZM1330.35 685.875H1334.88V710.039C1334.88 713.305 1333.89 715.859 1331.92 717.703C1329.97 719.547 1327.36 720.469 1324.09 720.469C1320.7 720.469 1318.06 719.602 1316.17 717.867C1314.28 716.133 1313.34 713.703 1313.34 710.578H1317.84C1317.84 712.531 1318.37 714.055 1319.43 715.148C1320.51 716.242 1322.06 716.789 1324.09 716.789C1325.95 716.789 1327.45 716.203 1328.59 715.031C1329.75 713.859 1330.34 712.219 1330.35 710.109V685.875ZM1342.16 695.484L1339.7 693.797C1341.16 691.766 1341.91 689.625 1341.95 687.375V684H1346.24V687.047C1346.23 688.609 1345.84 690.172 1345.07 691.734C1344.32 693.281 1343.35 694.531 1342.16 695.484ZM1363.61 713.273C1363.61 712.102 1363.16 711.195 1362.27 710.555C1361.4 709.898 1359.86 709.336 1357.66 708.867C1355.47 708.398 1353.73 707.836 1352.43 707.18C1351.15 706.523 1350.2 705.742 1349.57 704.836C1348.96 703.93 1348.66 702.852 1348.66 701.602C1348.66 699.523 1349.53 697.766 1351.28 696.328C1353.05 694.891 1355.3 694.172 1358.03 694.172C1360.91 694.172 1363.23 694.914 1365.02 696.398C1366.81 697.883 1367.71 699.781 1367.71 702.094H1363.35C1363.35 700.906 1362.84 699.883 1361.83 699.023C1360.83 698.164 1359.56 697.734 1358.03 697.734C1356.45 697.734 1355.22 698.078 1354.33 698.766C1353.44 699.453 1352.99 700.352 1352.99 701.461C1352.99 702.508 1353.41 703.297 1354.23 703.828C1355.06 704.359 1356.55 704.867 1358.71 705.352C1360.88 705.836 1362.64 706.414 1363.98 707.086C1365.33 707.758 1366.32 708.57 1366.96 709.523C1367.62 710.461 1367.95 711.609 1367.95 712.969C1367.95 715.234 1367.04 717.055 1365.23 718.43C1363.41 719.789 1361.06 720.469 1358.17 720.469C1356.14 720.469 1354.34 720.109 1352.78 719.391C1351.22 718.672 1349.99 717.672 1349.1 716.391C1348.23 715.094 1347.79 713.695 1347.79 712.195H1352.12C1352.2 713.648 1352.78 714.805 1353.86 715.664C1354.95 716.508 1356.39 716.93 1358.17 716.93C1359.81 716.93 1361.12 716.602 1362.11 715.945C1363.11 715.273 1363.61 714.383 1363.61 713.273Z" fill="#E8350E" fill-opacity="0.957604"/>
<defs>
<linearGradient id="paint0_linear" x1="288" y1="272.933" x2="288" y2="412.667" gradientUnits="userSpaceOnUse">
<stop/>
<stop offset="0.385417" stop-color="#2CE80E" stop-opacity="0.957604"/>
<stop offset="0.734375" stop-opacity="0.89"/>
</linearGradient>
<linearGradient id="paint1_linear" x1="288" y1="238" x2="288" y2="762" gradientUnits="userSpaceOnUse">
<stop/>
<stop offset="0.385417" stop-color="#2CE80E" stop-opacity="0.957604"/>
<stop offset="0.734375" stop-opacity="0.89"/>
</linearGradient>
</defs>
</svg>
